<svg xmlns="http://www.w3.org/2000/svg" viewBox="0 0 64 64" width="64" height="64">
  <defs>
    <linearGradient id="g" x1="0" y1="0" x2="1" y2="1">
      <stop offset="0" stop-color="#E7D3A1"/>
      <stop offset="0.5" stop-color="#C8A45D"/>
      <stop offset="1" stop-color="#A07C36"/>
    </linearGradient>
  </defs>
  <rect width="64" height="64" rx="14" fill="#4A383C"/>
  <g transform="translate(32 33) scale(1.55)" fill="url(#g)">
    <path d="M0 -5c.9-2 2.6-3.6 4.7-4.1 1.9-.5 3.6.3 4 2 .4 1.8-.7 3.8-2.6 5-1.3.8-3 1.3-4.6 1.4 1.5.4 3 1.3 3.9 2.6 1 1.5 1 3.3-.2 4.3-1.2 1-3 .6-4.1-.8C.5 4.9.1 4.1-.1 3.2-.3 4.1-.7 4.9-1.2 5.5c-1.1 1.4-2.9 1.8-4.1.8-1.2-1-1.2-2.8-.2-4.3.9-1.3 2.4-2.2 3.9-2.6-1.6-.1-3.3-.6-4.6-1.4-1.9-1.2-3-3.2-2.6-5 .4-1.7 2.1-2.5 4-2C-2.6-8.6-.9-7-.0-5c.1.3.3.6.4.9C.5-4.4.7-4.7.8-5Z"/>
    <circle cx="0" cy="-6" r="1.05"/>
  </g>
</svg>
